<?xml version="1.0" encoding="UTF-8"?>
<svg xmlns="http://www.w3.org/2000/svg" xmlns:xlink="http://www.w3.org/1999/xlink" width="0" height="0">
<defs>
<symbol id="technologies" viewBox="0 0 32 32">
<path fill="#4d5ae5" style="fill: var(--color1, #4d5ae5)" d="M31.974 4.524c-0.063-0.193-0.229-0.333-0.43-0.363l-1.91-0.278-0.855-1.731c-0.179-0.365-0.777-0.365-0.956 0l-0.855 1.731-1.91 0.278c-0.201 0.029-0.367 0.17-0.431 0.363-0.062 0.193-0.011 0.405 0.135 0.547l1.383 1.348-0.326 1.903c-0.034 0.2 0.048 0.402 0.212 0.522 0.166 0.121 0.382 0.135 0.562 0.040l1.709-0.899 1.709 0.899c0.078 0.041 0.164 0.061 0.249 0.061 0.11 0 0.221-0.034 0.314-0.102 0.164-0.119 0.246-0.322 0.212-0.522l-0.326-1.903 1.383-1.348c0.145-0.142 0.197-0.354 0.135-0.547zM29.511 5.851c-0.125 0.122-0.183 0.299-0.153 0.472l0.191 1.114-1-0.526c-0.078-0.041-0.163-0.061-0.249-0.061s-0.17 0.020-0.249 0.061l-1.001 0.526 0.191-1.114c0.030-0.173-0.028-0.349-0.153-0.472l-0.81-0.789 1.119-0.163c0.174-0.025 0.324-0.134 0.402-0.292l0.5-1.013 0.5 1.013c0.078 0.157 0.228 0.267 0.402 0.292l1.119 0.163-0.809 0.789z"></path>
<path fill="#4d5ae5" style="fill: var(--color1, #4d5ae5)" d="M26.134 20.522h-1.067v1.067h1.067v-1.067z"></path>
<path fill="#4d5ae5" style="fill: var(--color1, #4d5ae5)" d="M26.134 22.656h-1.067v1.067h1.067v-1.067z"></path>
<path fill="#4d5ae5" style="fill: var(--color1, #4d5ae5)" d="M27.2 21.589h-1.067v1.067h1.067v-1.067z"></path>
<path fill="#4d5ae5" style="fill: var(--color1, #4d5ae5)" d="M25.067 21.589h-1.067v1.067h1.067v-1.067z"></path>
<path fill="#4d5ae5" style="fill: var(--color1, #4d5ae5)" d="M22.4 26.389h-1.067v1.067h1.067v-1.067z"></path>
<path fill="#4d5ae5" style="fill: var(--color1, #4d5ae5)" d="M22.4 28.522h-1.067v1.067h1.067v-1.067z"></path>
<path fill="#4d5ae5" style="fill: var(--color1, #4d5ae5)" d="M23.467 27.456h-1.067v1.067h1.067v-1.067z"></path>
<path fill="#4d5ae5" style="fill: var(--color1, #4d5ae5)" d="M21.333 27.456h-1.067v1.067h1.067v-1.067z"></path>
<path fill="#4d5ae5" style="fill: var(--color1, #4d5ae5)" d="M16 24.256h-1.067v1.067h1.067v-1.067z"></path>
<path fill="#4d5ae5" style="fill: var(--color1, #4d5ae5)" d="M16 26.389h-1.067v1.067h1.067v-1.067z"></path>
<path fill="#4d5ae5" style="fill: var(--color1, #4d5ae5)" d="M17.067 25.322h-1.067v1.067h1.067v-1.067z"></path>
<path fill="#4d5ae5" style="fill: var(--color1, #4d5ae5)" d="M14.933 25.322h-1.067v1.067h1.067v-1.067z"></path>
<path fill="#4d5ae5" style="fill: var(--color1, #4d5ae5)" d="M5.867 6.122h-1.067v1.067h1.067v-1.067z"></path>
<path fill="#4d5ae5" style="fill: var(--color1, #4d5ae5)" d="M5.867 8.255h-1.067v1.067h1.067v-1.067z"></path>
<path fill="#4d5ae5" style="fill: var(--color1, #4d5ae5)" d="M6.933 7.189h-1.067v1.067h1.067v-1.067z"></path>
<path fill="#4d5ae5" style="fill: var(--color1, #4d5ae5)" d="M4.8 7.189h-1.067v1.067h1.067v-1.067z"></path>
<path fill="#2e2f42" style="fill: var(--color2, #2e2f42)" d="M24.715 14.159c-0.287-0.388-0.709-0.637-1.188-0.705-0.481-0.068-0.956 0.058-1.34 0.352l-1.252 0.96-1.898 1.417-1.358-0.541c2.421-1.086 4.114-3.508 4.114-6.32 0-3.823-3.123-6.933-6.961-6.933s-6.961 3.11-6.961 6.933c0 1.386 0.414 2.674 1.12 3.758l-2.764-0.024c-0.002 0-0.003 0-0.005 0-0.009 0-0.015 0.004-0.023 0.005-0.053 0.002-0.105 0.013-0.155 0.031-0.013 0.005-0.026 0.008-0.038 0.013-0.006 0.003-0.013 0.003-0.019 0.006l-3.233 1.596c-0.001 0-0.001 0-0.001 0.001l-1.893 0.911c-0.021 0.009-0.042 0.021-0.063 0.035-0.755 0.502-1.012 1.489-0.598 2.295 0.22 0.429 0.595 0.745 1.056 0.889 0.178 0.055 0.359 0.083 0.539 0.083 0.29 0 0.577-0.071 0.839-0.211l1.388-0.738 2.264-1.169 1.357-0.008-5.442 5.416c-0.001 0.001-0.001 0.001-0.002 0.001l-1.339 1.333c-0.316 0.315-0.49 0.732-0.49 1.178s0.174 0.863 0.49 1.179c0.325 0.323 0.752 0.485 1.179 0.485s0.854-0.162 1.18-0.485l1.314-1.309 1.741-1.3 0.901 0.897-1.762 1.754c-0 0.001-0.001 0.001-0.002 0.001l-1.339 1.333c-0.316 0.315-0.49 0.732-0.49 1.178s0.174 0.863 0.49 1.179c0.325 0.323 0.753 0.485 1.18 0.485s0.855-0.162 1.18-0.485l3.482-3.467c0.001-0.001 0.001-0.001 0.001-0.002l1.010-1-0.004-0.004c0.006-0.006 0.015-0.009 0.022-0.015l5.166-5.658 3.471 0.494c0.025 0.004 0.050 0.005 0.075 0.005 0.065 0 0.127-0.015 0.187-0.038 0.018-0.006 0.033-0.015 0.050-0.023 0.019-0.010 0.039-0.015 0.058-0.027l3.213-2.133c0.012-0.008 0.018-0.021 0.029-0.029 0.013-0.010 0.029-0.014 0.041-0.026l1.271-1.191c0.662-0.62 0.753-1.635 0.212-2.362zM2.13 17.77c-0.173 0.093-0.37 0.111-0.558 0.052-0.187-0.058-0.338-0.186-0.427-0.358-0.161-0.314-0.068-0.695 0.214-0.902l1.314-0.632 0.449 1.313-0.992 0.527zM5.628 15.942l-1.548 0.8-0.439-1.283 2.027-1.001-0.040 1.484zM20.727 9.322c0 0.918-0.219 1.785-0.599 2.559l-4.181-1.899c-0.044-0.573-0.341-1.075-0.788-1.388l1.464-4.86c2.378 0.756 4.105 2.974 4.105 5.588zM8.938 9.322c0-3.235 2.644-5.867 5.894-5.867 0.253 0 0.5 0.021 0.745 0.052l-1.432 4.754c-0.019-0.001-0.037-0.006-0.057-0.006-1.033 0-1.873 0.837-1.873 1.867s0.84 1.867 1.873 1.867c0.694 0 1.294-0.383 1.618-0.945l3.862 1.755c-1.075 1.446-2.795 2.39-4.737 2.39-3.25 0-5.894-2.632-5.894-5.867zM14.894 10.122c0 0.441-0.362 0.8-0.806 0.8s-0.806-0.359-0.806-0.8c0-0.441 0.362-0.8 0.806-0.8s0.806 0.359 0.806 0.8zM2.465 25.146c-0.236 0.234-0.619 0.234-0.854 0.001-0.114-0.114-0.176-0.263-0.176-0.423s0.062-0.309 0.176-0.421l0.962-0.958 0.851 0.848-0.959 0.955zM5.679 28.88c-0.236 0.234-0.619 0.235-0.855 0.001-0.114-0.114-0.176-0.263-0.176-0.423s0.062-0.309 0.176-0.421l0.963-0.959 0.852 0.848-0.96 0.955zM9.16 25.411c-0.001 0-0.001 0-0.002 0.001l-1.765 1.76-0.852-0.848 1.763-1.755c0 0 0 0 0-0s0.001-0.001 0.002-0.001c0.040-0.040 0.065-0.088 0.090-0.135 0.007-0.014 0.020-0.026 0.026-0.040 0.017-0.041 0.019-0.085 0.026-0.129 0.003-0.025 0.014-0.047 0.014-0.073 0-0.036-0.013-0.070-0.020-0.106-0.006-0.032-0.006-0.065-0.019-0.095-0.020-0.050-0.055-0.094-0.091-0.138-0.010-0.012-0.014-0.027-0.025-0.038 0 0 0 0-0.001 0s-0.001-0.002-0.001-0.002l-1.607-1.6c-0.017-0.017-0.039-0.024-0.058-0.038-0.028-0.022-0.055-0.042-0.087-0.058-0.030-0.015-0.061-0.024-0.093-0.033-0.034-0.010-0.067-0.017-0.103-0.020-0.033-0.002-0.063 0.001-0.095 0.005-0.036 0.004-0.069 0.009-0.104 0.020-0.034 0.011-0.063 0.027-0.094 0.045-0.020 0.011-0.042 0.015-0.061 0.029l-1.773 1.324-0.901-0.897 2.399-2.386 4.361 4.289-0.928 0.919zM15.979 18.394c-0.015-0.002-0.030 0.004-0.045 0.003-0.039-0.002-0.076 0.001-0.115 0.007-0.030 0.005-0.059 0.011-0.088 0.021-0.034 0.012-0.065 0.028-0.097 0.047-0.030 0.018-0.057 0.037-0.083 0.061-0.013 0.011-0.028 0.017-0.040 0.029l-4.698 5.146-4.328-4.257 2.833-2.818c0.209-0.208 0.21-0.546 0.002-0.755-0.105-0.105-0.243-0.157-0.381-0.156v-0.001l-2.219 0.013 0.028-1.607 3.104 0.027c1.265 1.294 3.029 2.101 4.981 2.101 0.437 0 0.864-0.045 1.279-0.123 0.040 0.032 0.079 0.065 0.13 0.085l2.41 0.96 0.152 0.758 0.178 0.885-3.003-0.427zM20.020 18.572l-0.313-1.558 1.446-1.080 0.947 1.257-2.080 1.381zM23.774 15.741l-0.838 0.785-0.931-1.236 0.831-0.637c0.155-0.119 0.351-0.168 0.543-0.143 0.193 0.027 0.364 0.128 0.48 0.284 0.217 0.292 0.18 0.699-0.085 0.947z"></path>
<path fill="#2e2f42" style="fill: var(--color2, #2e2f42)" d="M13.602 18.544l-2.143-2.133c-0.207-0.207-0.545-0.207-0.753 0l-2.142 2.133c-0.1 0.101-0.157 0.236-0.157 0.378s0.056 0.278 0.157 0.378l2.142 2.133c0.104 0.103 0.241 0.155 0.377 0.155s0.273-0.052 0.376-0.155l2.143-2.133c0.1-0.1 0.157-0.236 0.157-0.378s-0.057-0.278-0.157-0.378zM11.083 20.303l-1.387-1.381 1.387-1.381 1.387 1.381-1.387 1.381z"></path>
<path fill="#2e2f42" style="fill: var(--color2, #2e2f42)" d="M17.164 5.071l-0.258 1.036c0.071 0.018 1.738 0.452 1.738 2.149h1.067c-0-2.017-1.666-2.965-2.547-3.185z"></path>
<path fill="#2e2f42" style="fill: var(--color2, #2e2f42)" d="M19.711 9.322h-1.067v1.067h1.067v-1.067z"></path>
</symbol>
<symbol id="diligence" viewBox="0 0 32 32">
<path fill="#4d5ae5" style="fill: var(--color1, #4d5ae5)" d="M14.926 14.965h1.066v4.798h-1.066v-4.797z"></path>
<path fill="#4d5ae5" style="fill: var(--color1, #4d5ae5)" d="M19.19 17.097h1.066v2.665h-1.066v-2.665z"></path>
<path fill="#4d5ae5" style="fill: var(--color1, #4d5ae5)" d="M10.661 18.696h1.066v1.066h-1.066v-1.066z"></path>
<path fill="#4d5ae5" style="fill: var(--color1, #4d5ae5)" d="M7.463 18.163h1.066v1.599h-1.066v-1.599z"></path>
<path fill="#2e2f42" style="fill: var(--color2, #2e2f42)" d="M1.599 28.291h25.587c0.883 0 1.599-0.716 1.599-1.599v-2.132c0-0.883-0.716-1.599-1.599-1.599h-0.533v-13.293l3.028-2.868c0.703 0.346 1.553 0.136 2.013-0.499s0.396-1.508-0.152-2.068-1.42-0.644-2.065-0.198c-0.644 0.446-0.873 1.292-0.542 2.002l-2.281 2.163v-1.23c0-0.883-0.716-1.599-1.599-1.599h-21.322c-0.883 0-1.599 0.716-1.599 1.599v15.992h-0.533c-0.883 0-1.599 0.716-1.599 1.599v2.132c0 0.883 0.716 1.599 1.599 1.599zM30.384 4.837c0.294 0 0.533 0.239 0.533 0.533s-0.239 0.533-0.533 0.533c-0.294 0-0.533-0.239-0.533-0.533s0.239-0.533 0.533-0.533zM3.198 6.969c0-0.294 0.239-0.533 0.533-0.533h21.322c0.294 0 0.533 0.239 0.533 0.533v2.239l-1.066 1.013v-2.186c0-0.294-0.239-0.533-0.533-0.533h-19.19c-0.294 0-0.533 0.239-0.533 0.533v13.326c0 0.294 0.239 0.533 0.533 0.533h19.19c0.294 0 0.533-0.239 0.533-0.533v-9.674l1.066-1.010v12.284h-22.388v-15.992zM7.996 13.899c-0.721-0.002-1.354 0.478-1.546 1.174s0.105 1.433 0.725 1.801c0.62 0.368 1.41 0.276 1.928-0.226l1.853 0.93c0.215 0.108 0.476 0.057 0.636-0.123l3.939-4.431 3.872 2.901c0.208 0.156 0.498 0.139 0.686-0.039l3.365-3.188v8.131h-18.124v-12.26h18.124v2.66l-3.771 3.572-3.904-2.927c-0.222-0.166-0.534-0.135-0.718 0.072l-3.993 4.493-1.493-0.746c0.011-0.064 0.018-0.129 0.020-0.193 0-0.883-0.716-1.599-1.599-1.599zM8.529 15.498c0 0.294-0.239 0.533-0.533 0.533s-0.533-0.239-0.533-0.533c0-0.294 0.239-0.533 0.533-0.533s0.533 0.239 0.533 0.533zM11.727 24.027h5.331v0.533c0 0.294-0.239 0.533-0.533 0.533h-4.264c-0.294 0-0.533-0.239-0.533-0.533v-0.533zM1.066 24.56c0-0.294 0.239-0.533 0.533-0.533h9.062v0.533c0 0.883 0.716 1.599 1.599 1.599h4.264c0.883 0 1.599-0.716 1.599-1.599v-0.533h9.062c0.294 0 0.533 0.239 0.533 0.533v2.132c0 0.294-0.239 0.533-0.533 0.533h-25.587c-0.294 0-0.533-0.239-0.533-0.533v-2.132z"></path>
</symbol>
<symbol id="punctuality" viewBox="0 0 32 32">
<path fill="#2e2f42" style="fill: var(--color2, #2e2f42)" d="M31.297 15.301c-0.002-8.452-6.855-15.303-15.308-15.301s-15.303 6.855-15.301 15.308c0.001 6.658 4.307 12.551 10.649 14.576 0.061 0.019 0.124 0.029 0.187 0.029 0.121-0 0.239-0.032 0.342-0.094 0.135-0.080 0.236-0.207 0.283-0.356l3.865-12.25c1.057-0.005 1.909-0.866 1.903-1.923s-0.866-1.909-1.923-1.903c-0.284 0.001-0.565 0.067-0.82 0.191l-5.106-5.107c-0.253-0.245-0.657-0.238-0.902 0.016-0.239 0.247-0.239 0.639 0 0.886l5.103 5.109c-0.392 0.799-0.168 1.764 0.536 2.309l-3.683 11.673c-7.278-2.681-11.004-10.754-8.323-18.032s10.754-11.004 18.032-8.323c7.278 2.681 11.004 10.754 8.323 18.032-1.31 3.556-4.001 6.431-7.462 7.973l-0.398-1.874c-0.073-0.345-0.411-0.565-0.756-0.492-0.109 0.023-0.209 0.074-0.293 0.148l-3.837 3.426c-0.263 0.234-0.287 0.637-0.052 0.9 0.076 0.085 0.174 0.149 0.283 0.184l4.899 1.564c0.335 0.108 0.694-0.077 0.802-0.412 0.034-0.106 0.040-0.219 0.017-0.328l-0.391-1.839c5.664-2.388 9.342-7.942 9.329-14.089zM15.992 14.664c0.352 0 0.638 0.286 0.638 0.638s-0.286 0.638-0.638 0.638c-0.352 0-0.638-0.285-0.638-0.638s0.285-0.638 0.638-0.638zM18.093 29.528l2.184-1.948 0.603 2.84-2.787-0.892z"></path>
<path fill="#4d5ae5" style="fill: var(--color1, #4d5ae5)" d="M15.354 3.185v1.275c0 0.352 0.285 0.638 0.638 0.638s0.638-0.285 0.638-0.638v-1.275c0-0.352-0.286-0.638-0.638-0.638s-0.638 0.286-0.638 0.638z"></path>
<path fill="#4d5ae5" style="fill: var(--color1, #4d5ae5)" d="M3.876 14.664c-0.352 0-0.638 0.286-0.638 0.638s0.285 0.638 0.638 0.638h1.275c0.352 0 0.638-0.285 0.638-0.638s-0.285-0.638-0.638-0.638h-1.275z"></path>
<path fill="#4d5ae5" style="fill: var(--color1, #4d5ae5)" d="M28.108 15.939c0.352 0 0.638-0.285 0.638-0.638s-0.285-0.638-0.638-0.638h-1.275c-0.352 0-0.638 0.286-0.638 0.638s0.286 0.638 0.638 0.638h1.275z"></path>
</symbol>
<symbol id="strategy" viewBox="0 0 30 32">
<path fill="#2e2f42" style="fill: var(--color2, #2e2f42)" d="M29.773 22.098l-8.443-8.505 0.937-4.615c0.242 0.094 0.499 0.144 0.758 0.146h0.006c1.192 0.014 2.17-0.941 2.184-2.133s-0.941-2.17-2.133-2.184c-1.192-0.014-2.17 0.941-2.184 2.133-0.003 0.255 0.039 0.509 0.125 0.749l-4.96 0.605-8.091-8.133c-0.099-0.101-0.235-0.159-0.377-0.16-0.14 0.001-0.274 0.056-0.373 0.155l-1.513 1.504c-0.208 0.208-0.208 0.546 0 0.754l0.814 0.826c-3.153 5.798-2.129 12.978 2.519 17.663 0.043 0.041 0.092 0.074 0.146 0.098-0.034 0.18-0.051 0.364-0.052 0.547v6.187h-6.4c-1.472 0.002-2.665 1.195-2.667 2.667v1.067c0 0.295 0.239 0.533 0.533 0.533h24.533c0.295 0 0.533-0.239 0.533-0.533v-1.067c-0.002-1.472-1.195-2.665-2.667-2.667h-6.4v-2.742c1.003 0.21 2.024 0.317 3.049 0.32 2.458-0.003 4.877-0.615 7.040-1.783l0.818 0.823c0.099 0.101 0.235 0.159 0.377 0.16 0.14-0.001 0.274-0.056 0.373-0.155l1.513-1.504c0.208-0.208 0.208-0.546 0-0.754zM22.28 6.233c0.418-0.415 1.093-0.414 1.509 0.004s0.414 1.093-0.004 1.508c-0.2 0.199-0.47 0.31-0.752 0.31h-0.003c-0.589-0.003-1.064-0.483-1.061-1.072 0.002-0.282 0.115-0.552 0.314-0.751h-0.002zM21.024 9.738l-0.598 2.946-1.175-1.182 1.774-1.763zM20.419 8.836l-1.92 1.909-1.485-1.493 3.405-0.415zM23.004 28.8c0.884 0 1.6 0.716 1.6 1.6v0.533h-23.467v-0.533c0-0.884 0.716-1.6 1.6-1.6h20.267zM15.537 26.667v1.067h-5.333v-1.067h5.333zM10.204 25.6v-4.053c0-1.294 1.196-2.347 2.667-2.347s2.667 1.053 2.667 2.347v4.053h-5.333zM16.604 23.904v-2.357c0-1.882-1.675-3.413-3.733-3.413-1.331-0.020-2.576 0.657-3.281 1.786-4.058-4.274-4.971-10.645-2.279-15.887l18.602 18.708c-2.872 1.461-6.165 1.873-9.309 1.163zM27.893 23.22l-21.057-21.181 0.755-0.752 7.935 7.98c0.004 0 0.006 0.007 0.010 0.010l13.115 13.191-0.757 0.752z"></path>
<path fill="#4d5ae5" style="fill: var(--color1, #4d5ae5)" d="M12.876 20.267h-0.005c-0.884-0.001-1.601 0.714-1.602 1.598s0.714 1.601 1.598 1.602h0.005c0.884 0.001 1.601-0.714 1.602-1.598s-0.714-1.601-1.598-1.602zM13.249 22.245c-0.1 0.1-0.236 0.156-0.378 0.155-0.295-0.002-0.532-0.242-0.531-0.536 0.001-0.141 0.057-0.276 0.157-0.375s0.233-0.154 0.373-0.155c0.295 0.002 0.532 0.242 0.531 0.536-0.001 0.141-0.057 0.276-0.157 0.375h0.005z"></path>
</symbol>
<symbol id="client-6" viewBox="0 0 104 56" >
<path d="M53.5293 27.4433C53.0853 26.8524 52.8729 26.1542 52.9233 25.4513V22.5632C52.9233 21.6779 53.1242 21.0051 53.5259 20.5448C53.9277 20.0845 54.6177 19.8554 55.596 19.8573C56.5153 19.8573 57.1679 20.0532 57.5537 20.4449C57.9746 20.9447 58.1794 21.556 58.1325 22.1725V22.8512H56.488V22.1637C56.4939 21.9386 56.4779 21.7136 56.4404 21.4909C56.4167 21.3386 56.3339 21.1977 56.2055 21.0913C56.0366 20.9766 55.8239 20.921 55.6096 20.9356C55.3843 20.9211 55.1609 20.9797 54.9832 21.1001C54.8399 21.218 54.7444 21.3725 54.7108 21.5408C54.6636 21.7765 54.642 22.0155 54.6461 22.2547V25.7598C54.6202 26.0979 54.6927 26.4363 54.8572 26.744C54.939 26.8482 55.0526 26.9307 55.1854 26.9826C55.3182 27.0344 55.465 27.0536 55.6096 27.0378C55.8203 27.0528 56.0293 26.9958 56.1918 26.8792C56.3258 26.7644 56.412 26.6147 56.437 26.4532C56.4754 26.2206 56.4925 25.9858 56.488 25.751V25.04H58.1325V25.6893C58.1787 26.3319 57.9789 26.9699 57.5639 27.505C57.186 27.9339 56.5425 28.1484 55.596 28.1484C54.6495 28.1484 53.9345 27.9193 53.5293 27.4433Z"/>
<path d="M60.3763 27.4727C59.961 27.0232 59.7533 26.368 59.7533 25.5013V22.4633C59.7533 21.6054 59.961 20.9561 60.3763 20.5154C60.7917 20.0747 61.4863 19.8554 62.46 19.8573C63.4269 19.8573 64.1181 20.0767 64.5334 20.5154C64.9488 20.9561 65.1599 21.6054 65.1599 22.4633V25.5013C65.1599 26.3592 64.9488 27.0173 64.5266 27.4697C64.1044 27.9222 63.4167 28.1484 62.46 28.1484C61.5033 28.1484 60.7951 27.9193 60.3763 27.4727ZM63.226 26.744C63.3748 26.4625 63.4425 26.154 63.4235 25.845V22.1255C63.4426 21.8224 63.376 21.5199 63.2294 21.2441C63.146 21.1377 63.0296 21.0538 62.8936 21.0019C62.7575 20.9499 62.6073 20.932 62.46 20.9503C62.3123 20.9325 62.1617 20.9506 62.0252 21.0025C61.8887 21.0544 61.7717 21.138 61.6871 21.2441C61.5374 21.5191 61.4695 21.8221 61.4897 22.1255V25.8626C61.469 26.1718 61.5368 26.4805 61.6871 26.7617C61.783 26.8564 61.9013 26.9324 62.034 26.9845C62.1667 27.0365 62.3108 27.0634 62.4566 27.0634C62.6024 27.0634 62.7465 27.0365 62.8792 26.9845C63.0119 26.9324 63.1302 26.8564 63.226 26.7617V26.744Z"/>
<path d="M67.1378 19.946H68.9083L70.2395 25.5512L71.6014 19.946H73.3242L73.4978 28.0365H72.2244L72.0883 22.4137L70.774 28.0365H69.7526L68.3907 22.3931L68.2648 28.0365H66.9778L67.1378 19.946Z"/>
<path d="M75.4829 19.946H78.2406C79.8295 19.946 80.6239 20.7118 80.6239 22.2433C80.6239 23.7102 79.7875 24.4427 78.1147 24.4407H77.175V28.0365H75.4727L75.4829 19.946ZM77.8389 23.4037C78.0071 23.4221 78.1779 23.4088 78.3396 23.3647C78.5012 23.3206 78.6499 23.2467 78.7752 23.1481C78.9704 22.8749 79.0565 22.554 79.0203 22.2345C79.0292 21.9877 79.0018 21.7409 78.9386 21.5001C78.9143 21.4196 78.8717 21.3442 78.8133 21.2781C78.7548 21.212 78.6817 21.1567 78.5981 21.1152C78.3618 21.0174 78.1006 20.973 77.8389 20.986H77.1784V23.4037H77.8389Z"/>
<path d="M83.0787 19.946H84.907L86.783 28.0365H85.1964L84.8253 26.171H83.1945L82.8132 28.0365H81.2028L83.0787 19.946ZM84.6415 25.2339L84.0048 21.8379L83.3681 25.2339H84.6415Z"/>
<path d="M88.2981 19.946H89.4897L91.7709 24.5612V19.946H93.1838V28.0365H92.0501L89.7553 23.2186V28.0365H88.2947L88.2981 19.946Z"/>
<path d="M96.4932 24.9516L94.5968 19.9573H96.1936L97.3512 23.1654L98.4373 19.9573H100L98.1274 24.9516V28.0363H96.4932V24.9516Z"/>
<path d="M56.1579 31.5736V31.9967H54.7688V35.2842H54.1866V31.9967H52.7906V31.5736H56.1579Z"/>
<path d="M60.5123 35.2844H60.0629C60.0173 35.2869 59.9722 35.2743 59.9369 35.2492C59.9029 35.2277 59.8769 35.1981 59.862 35.164L59.4603 34.2827H57.5332L57.1314 35.164C57.12 35.2009 57.0991 35.235 57.0702 35.2639C57.0345 35.2885 56.9897 35.301 56.9442 35.2991H56.4948L58.1971 31.5887H58.7895L60.5123 35.2844ZM57.6932 33.9066H59.3003L58.6193 32.3966C58.5691 32.2824 58.527 32.1657 58.4933 32.047C58.4695 32.1175 58.4491 32.1851 58.4286 32.2439L58.3674 32.3996L57.6932 33.9066Z"/>
<path d="M63.4472 34.9202C63.5538 34.925 63.6606 34.925 63.7672 34.9202C63.8593 34.912 63.9504 34.8972 64.0396 34.8761C64.123 34.8584 64.2049 34.8359 64.2848 34.8085C64.3597 34.7821 64.4346 34.7498 64.5129 34.7174V33.883H63.8319C63.8151 33.8838 63.7982 33.8816 63.7824 33.8766C63.7666 33.8715 63.7522 33.8637 63.74 33.8536C63.7288 33.8453 63.72 33.8349 63.7141 33.8232C63.7082 33.8115 63.7054 33.7988 63.706 33.786V33.501H65.027V34.9231C64.9192 34.9897 64.8053 35.0486 64.6865 35.0994C64.5651 35.1511 64.4386 35.1934 64.3086 35.2257C64.1694 35.2611 64.027 35.2866 63.883 35.3021C63.7179 35.3179 63.552 35.3258 63.3859 35.3256C63.0923 35.3278 62.8009 35.2809 62.5279 35.1875C62.273 35.0991 62.0414 34.9672 61.847 34.7997C61.6574 34.6305 61.5082 34.4309 61.4078 34.2121C61.3005 33.9661 61.2474 33.705 61.2512 33.4423C61.2476 33.1778 61.2995 32.9151 61.4044 32.6666C61.5023 32.4467 61.6518 32.2466 61.8436 32.079C62.0379 31.912 62.2696 31.7811 62.5245 31.6941C62.8161 31.5994 63.1255 31.5526 63.437 31.556C63.5955 31.5558 63.7537 31.5666 63.9102 31.5883C64.0486 31.6077 64.1844 31.6392 64.3154 31.6823C64.4345 31.7209 64.5486 31.7701 64.6559 31.8292C64.7602 31.8872 64.8593 31.952 64.9521 32.0231L64.7887 32.2523C64.7759 32.2732 64.7568 32.2908 64.7334 32.3032C64.7101 32.3156 64.6833 32.3224 64.6559 32.3228C64.6182 32.3218 64.5816 32.3116 64.5503 32.2934C64.4993 32.2699 64.4448 32.2406 64.3835 32.2053C64.3111 32.1661 64.2348 32.1327 64.1554 32.1054C64.0539 32.0703 63.9491 32.0427 63.8421 32.0231C63.6995 32.0005 63.5547 31.9896 63.4097 31.9908C63.1851 31.9887 62.9621 32.0236 62.7526 32.0936C62.5632 32.1592 62.3924 32.2595 62.2522 32.3875C62.1111 32.5209 62.0033 32.6779 61.9355 32.8488C61.7834 33.2506 61.7834 33.6838 61.9355 34.0857C62.01 34.2602 62.126 34.4194 62.276 34.5529C62.4156 34.6802 62.5851 34.7804 62.7731 34.8467C62.9896 34.9108 63.219 34.9359 63.4472 34.9202Z"/>
<path d="M68.8744 34.8611H70.7334V35.2842H68.3058V31.5736H68.888L68.8744 34.8611Z"/>
<path d="M72.6672 35.2842H72.085V31.5736H72.6672V35.2842Z"/>
<path d="M74.8325 31.5913C74.8671 31.6083 74.8973 31.6313 74.9211 31.6589L77.4098 34.4559C77.4065 34.4119 77.4065 34.3677 77.4098 34.3237C77.4098 34.2826 77.4098 34.2414 77.4098 34.2032V31.559H77.9171V35.2845H77.6243C77.581 35.2875 77.5374 35.2804 77.4984 35.2639C77.463 35.2454 77.4319 35.2215 77.4064 35.1934L74.9211 32.3993C74.9211 32.4433 74.9211 32.4845 74.9211 32.5256C74.9211 32.5667 74.9211 32.6049 74.9211 32.6402V35.2845H74.4342V31.5737H74.7372C74.7701 31.5737 74.8025 31.5797 74.8325 31.5913Z"/>
<path d="M82.2037 31.5736V31.982H80.1405V33.2071H81.8122V33.6008H80.1405V34.8671H82.2037V35.2754H79.5413V31.5736H82.2037Z"/>
<path d="M21.1952 8.65871L47.047 14.9927V37.1883L21.1952 30.8572V8.65871ZM19.5371 6.76672V31.9354L48.7017 39.0832V13.9175L19.5371 6.76672Z"/>
<path d="M35.168 50.7667L6 43.6129V18.4469L35.168 25.5977V50.7667Z"/>
<path d="M20.0205 8.37371L45.5352 14.6283L34.6845 23.9941L9.16636 17.7365L20.0205 8.37371ZM19.537 6.76672L6 18.4475L35.168 25.5981L48.7016 13.9174L19.537 6.76672Z"/>
<path d="M36.8091 49.3509L48.7016 39.0863L36.8091 36.1691V49.3509Z"/>
</symbol>
<symbol id="client-5" viewBox="0 0 104 56" >
<path d="M26.7919 44.373C27.0374 44.6465 27.1681 44.9891 27.1613 45.3407C27.1738 45.57 27.1288 45.7989 27.0298 46.0105C26.9307 46.2221 26.78 46.4109 26.5889 46.563C26.112 46.8872 25.5213 47.0457 24.925 47.0093H22V40.8769H24.8651C25.4307 40.8431 25.9918 40.9871 26.4525 41.2844C26.6375 41.4238 26.784 41.6 26.8805 41.7991C26.9769 41.9982 27.0206 42.2148 27.0082 42.4317C27.025 42.77 26.907 43.1026 26.6754 43.3694C26.4531 43.6131 26.1459 43.782 25.8036 43.8488C26.1916 43.9125 26.5419 44.0983 26.7919 44.373ZM23.361 43.4473H24.5856C24.8639 43.4659 25.1404 43.3935 25.3643 43.2436C25.4562 43.1686 25.5278 43.0755 25.5734 42.9716C25.619 42.8677 25.6374 42.7558 25.6272 42.6445C25.6358 42.5335 25.617 42.4222 25.5722 42.3186C25.5273 42.215 25.4574 42.1217 25.3676 42.0453C25.137 41.8911 24.852 41.8177 24.5657 41.8386H23.361V43.4473ZM25.4841 45.799C25.5824 45.7222 25.6596 45.6261 25.7099 45.518C25.7601 45.4099 25.7819 45.2928 25.7736 45.1759C25.7811 45.0576 25.7583 44.9394 25.7069 44.8303C25.6556 44.7212 25.5771 44.6242 25.4774 44.5468C25.2379 44.3869 24.9432 44.3084 24.6455 44.3251H23.361V46.0117H24.6622C24.955 46.0269 25.2449 45.9519 25.4841 45.799Z"/>
<path d="M32.6487 47.0093L31.0547 44.6127H30.4557V47.0093H29.0847V40.8769H31.6803C32.3346 40.8358 32.9814 41.0224 33.4873 41.3982C33.8501 41.731 34.0689 42.1696 34.1043 42.6348C34.1397 43.1001 33.9893 43.5614 33.6803 43.9357C33.36 44.2659 32.9226 44.4861 32.4424 44.5588L34.1395 47.0093H32.6487ZM30.4557 43.7769H31.5772C32.3558 43.7769 32.7452 43.4673 32.7452 42.8482C32.7531 42.7217 32.7318 42.5952 32.6825 42.4766C32.6333 42.358 32.5571 42.2499 32.459 42.1591C32.2129 41.9749 31.896 41.8855 31.5772 41.9105H30.4424L30.4557 43.7769Z"/>
<path d="M40.1426 45.7752H37.4106L36.928 47.0094H35.4905L37.9996 40.9459H39.5536L42.0527 47.0094H40.6151L40.1426 45.7752ZM39.7766 44.8465L38.7782 42.2581L37.7799 44.8465H39.7766Z"/>
<path d="M49.5234 47.0094H48.1624L45.1109 42.8392V47.0094H43.7532V40.877H45.1109L48.1624 45.0711V40.877H49.5234V47.0094Z"/>
<path d="M57.2903 45.5415C57.0089 46.0045 56.5801 46.3811 56.059 46.6229C55.4666 46.8923 54.8091 47.0251 54.1456 47.0094H51.723V40.877H54.1456C54.8079 40.8614 55.4646 40.991 56.059 41.2545C56.58 41.4908 57.0092 41.8637 57.2903 42.324C57.5704 42.8227 57.7164 43.3738 57.7164 43.9327C57.7164 44.4916 57.5704 45.0427 57.2903 45.5415ZM55.7329 45.3947C56.1213 44.9873 56.3349 44.4681 56.3349 43.9312C56.3349 43.3943 56.1213 42.8752 55.7329 42.4678C55.2634 42.0988 54.6511 41.9114 54.0291 41.9465H53.0841V45.9159H54.0291C54.6511 45.951 55.2634 45.7637 55.7329 45.3947Z"/>
<path d="M40.9945 6.76672C40.9945 6.76672 58.5614 12.7374 58.1887 21.3773V35.9908C58.1887 35.9908 40.6351 30.0172 41.0012 21.3773L40.9945 6.76672Z"/>
<path d="M73.8389 32.5694C77.1565 30.5139 80.9941 29.2408 85 28.8666V24.292C80.3842 25.8935 76.4686 28.7975 73.8389 32.5694Z"/>
<path d="M71.8456 33.9478C74.5611 29.0253 79.2686 25.2268 85 23.3336V10.1521C85 10.1521 59.9823 18.6572 60.5114 30.9609V51.7668C60.5114 51.7668 61.6262 51.3863 63.3799 50.6733C63.3799 50.0083 63.3799 49.3372 63.4598 48.6631C63.9776 42.9511 66.9939 37.6581 71.8456 33.9478Z"/>
<path d="M69.4663 41.6769C69.5978 40.234 69.891 38.8067 70.3415 37.4169C67.3205 40.6211 65.491 44.5971 65.1104 48.7859C65.0738 49.1814 65.0538 49.5768 65.0438 49.9843C66.4648 49.3701 68.1186 48.6032 69.8557 47.7015C69.4124 45.7197 69.2813 43.6916 69.4663 41.6769Z"/>
<path d="M70.4612 41.7519C70.2947 43.5746 70.3988 45.4092 70.7707 47.2072C77.6058 43.5254 85.2861 37.8363 84.99 30.961V30.3618C80.1066 30.8537 75.5377 32.7756 71.9853 35.8321C71.1536 37.7263 70.6399 39.7214 70.4612 41.7519Z"/>
</symbol>
<symbol id="client-4" viewBox="0 0 104 56" >
<path d="M13.0782 12.5179H13.0753C10.6897 12.5179 8.75574 14.2616 8.75574 16.4124V16.415C8.75574 18.5658 10.6897 20.3094 13.0753 20.3094H13.0782C15.4638 20.3094 17.3978 18.5658 17.3978 16.415V16.4124C17.3978 14.2616 15.4638 12.5179 13.0782 12.5179Z"/>
<path d="M44.9614 11.273C44.9547 8.2855 43.6356 5.42211 41.2929 3.30942C38.9502 1.19673 35.7746 0.00678345 32.4611 0V0C29.1466 0.00542712 25.9696 1.19477 23.6257 3.30761C21.2817 5.42045 19.9619 8.28461 19.9551 11.273V27.7472C19.9551 27.7472 44.9586 25.2364 44.9614 11.2755V11.273Z"/>
<path d="M0 33.1543C0.00600975 35.233 0.924346 37.2251 2.55434 38.6952C4.18433 40.1653 6.39345 40.9939 8.69898 41C11.004 40.9939 13.2127 40.1657 14.8426 38.6961C16.4725 37.2265 17.3912 35.2351 17.398 33.1569V21.6938C17.398 21.6938 0 23.4422 0 33.1543ZM8.69898 35.2082C8.24844 35.2082 7.80802 35.0877 7.43341 34.862C7.0588 34.6364 6.76683 34.3156 6.59441 33.9403C6.422 33.565 6.37689 33.152 6.46479 32.7536C6.55268 32.3552 6.76964 31.9893 7.08822 31.702C7.40679 31.4148 7.81269 31.2192 8.25457 31.1399C8.69645 31.0607 9.15448 31.1014 9.57072 31.2568C9.98696 31.4123 10.3427 31.6755 10.593 32.0133C10.8433 32.351 10.9769 32.7481 10.9769 33.1543C10.9781 33.4247 10.92 33.6926 10.806 33.9427C10.692 34.1927 10.5244 34.4201 10.3128 34.6116C10.1011 34.8031 9.84963 34.9551 9.5727 35.0588C9.29576 35.1625 8.99885 35.2159 8.69898 35.2159V35.2082Z"/>
<path d="M24.6089 31.515V35.7806H23.73V31.515H24.6089ZM26.3081 33.3373V34.0228H24.3687V33.3373H26.3081ZM26.5132 31.515V32.2035H24.3687V31.515H26.5132ZM30.5269 33.5482V33.7504C30.5269 34.0746 30.4829 34.3656 30.395 34.6234C30.3071 34.8812 30.1831 35.101 30.0229 35.2826C29.8628 35.4623 29.6714 35.6 29.4487 35.6957C29.228 35.7914 28.9829 35.8392 28.7134 35.8392C28.4458 35.8392 28.2007 35.7914 27.978 35.6957C27.7573 35.6 27.5659 35.4623 27.4038 35.2826C27.2417 35.101 27.1157 34.8812 27.0259 34.6234C26.938 34.3656 26.894 34.0746 26.894 33.7504V33.5482C26.894 33.222 26.938 32.931 27.0259 32.6752C27.1138 32.4174 27.2378 32.1976 27.3979 32.016C27.5601 31.8344 27.7515 31.6957 27.9722 31.6C28.1948 31.5043 28.4399 31.4564 28.7075 31.4564C28.9771 31.4564 29.2222 31.5043 29.4429 31.6C29.6655 31.6957 29.8569 31.8344 30.0171 32.016C30.1792 32.1976 30.3042 32.4174 30.3921 32.6752C30.4819 32.931 30.5269 33.222 30.5269 33.5482ZM29.6392 33.7504V33.5424C29.6392 33.3158 29.6187 33.1166 29.5776 32.9447C29.5366 32.7728 29.4761 32.6283 29.396 32.5111C29.3159 32.3939 29.2183 32.306 29.103 32.2474C28.9878 32.1869 28.856 32.1566 28.7075 32.1566C28.5591 32.1566 28.4272 32.1869 28.312 32.2474C28.1987 32.306 28.1021 32.3939 28.022 32.5111C27.9438 32.6283 27.8843 32.7728 27.8433 32.9447C27.8022 33.1166 27.7817 33.3158 27.7817 33.5424V33.7504C27.7817 33.975 27.8022 34.1742 27.8433 34.348C27.8843 34.5199 27.9448 34.6654 28.0249 34.7845C28.105 34.9017 28.2026 34.9906 28.3179 35.0511C28.4331 35.1117 28.5649 35.142 28.7134 35.142C28.8618 35.142 28.9937 35.1117 29.1089 35.0511C29.2241 34.9906 29.3208 34.9017 29.3989 34.7845C29.4771 34.6654 29.5366 34.5199 29.5776 34.348C29.6187 34.1742 29.6392 33.975 29.6392 33.7504ZM33.3804 34.6644C33.3804 34.5883 33.3687 34.5199 33.3452 34.4594C33.3237 34.3969 33.2827 34.3402 33.2222 34.2894C33.1616 34.2367 33.0767 34.1849 32.9673 34.1342C32.8579 34.0834 32.7163 34.0306 32.5425 33.976C32.3491 33.9135 32.1655 33.8431 31.9917 33.765C31.8198 33.6869 31.6675 33.5961 31.5347 33.4926C31.4038 33.3871 31.3003 33.265 31.2241 33.1263C31.1499 32.9877 31.1128 32.8265 31.1128 32.6429C31.1128 32.4652 31.1519 32.3041 31.23 32.1595C31.3081 32.0131 31.4175 31.8881 31.5581 31.7845C31.6987 31.6791 31.8647 31.598 32.0562 31.5414C32.2495 31.4847 32.4614 31.4564 32.6919 31.4564C33.0063 31.4564 33.2808 31.5131 33.5151 31.6263C33.7495 31.7396 33.9312 31.8949 34.0601 32.0922C34.1909 32.2894 34.2563 32.515 34.2563 32.7689H33.3833C33.3833 32.6439 33.3569 32.5345 33.3042 32.4408C33.2534 32.3451 33.1753 32.2699 33.0698 32.2152C32.9663 32.1605 32.8354 32.1332 32.6772 32.1332C32.5249 32.1332 32.3979 32.1566 32.2964 32.2035C32.1948 32.2484 32.1187 32.3099 32.0679 32.3881C32.0171 32.4642 31.9917 32.5502 31.9917 32.6459C31.9917 32.7181 32.0093 32.7836 32.0444 32.8422C32.0815 32.9008 32.1362 32.9554 32.2085 33.0062C32.2808 33.057 32.3696 33.1049 32.4751 33.1498C32.5806 33.1947 32.7026 33.2386 32.8413 33.2816C33.0737 33.3519 33.2778 33.431 33.4536 33.5189C33.6313 33.6068 33.7798 33.7054 33.8989 33.8148C34.0181 33.9242 34.1079 34.0482 34.1685 34.1869C34.229 34.3256 34.2593 34.4828 34.2593 34.6586C34.2593 34.8441 34.2231 35.0101 34.1509 35.1566C34.0786 35.3031 33.9741 35.4271 33.8374 35.5287C33.7007 35.6302 33.5376 35.7074 33.3481 35.7601C33.1587 35.8129 32.9468 35.8392 32.7124 35.8392C32.5015 35.8392 32.2935 35.8119 32.0884 35.7572C31.8833 35.7006 31.6968 35.6156 31.5288 35.5023C31.3628 35.389 31.23 35.2445 31.1304 35.0687C31.0308 34.8929 30.981 34.6849 30.981 34.4447H31.8628C31.8628 34.5775 31.8833 34.6898 31.9243 34.7816C31.9653 34.8734 32.0229 34.9476 32.0972 35.0043C32.1733 35.0609 32.2632 35.1019 32.3667 35.1273C32.4722 35.1527 32.5874 35.1654 32.7124 35.1654C32.8647 35.1654 32.9897 35.1439 33.0874 35.101C33.187 35.058 33.2603 34.9984 33.3071 34.9222C33.356 34.8461 33.3804 34.7601 33.3804 34.6644ZM36.7642 31.515V35.7806H35.8882V31.515H36.7642ZM38.0767 31.515V32.2035H34.5962V31.515H38.0767ZM41.4399 35.0951V35.7806H39.1694V35.0951H41.4399ZM39.4565 31.515V35.7806H38.5776V31.515H39.4565ZM41.144 33.2523V33.9203H39.1694V33.2523H41.144ZM41.437 31.515V32.2035H39.1694V31.515H41.437ZM41.9526 31.515H43.5435C43.8696 31.515 44.1499 31.5638 44.3843 31.6615C44.6206 31.7592 44.8022 31.9037 44.9292 32.0951C45.0562 32.2865 45.1196 32.5219 45.1196 32.8011C45.1196 33.0297 45.0806 33.226 45.0024 33.39C44.9263 33.5521 44.8179 33.6879 44.6772 33.7972C44.5386 33.9047 44.3755 33.9906 44.188 34.0551L43.9097 34.2015H42.5269L42.521 33.516H43.5493C43.7036 33.516 43.8315 33.4886 43.9331 33.434C44.0347 33.3793 44.1108 33.3031 44.1616 33.2054C44.2144 33.1078 44.2407 32.9945 44.2407 32.8656C44.2407 32.7289 44.2153 32.6107 44.1646 32.5111C44.1138 32.4115 44.0366 32.3353 43.9331 32.2826C43.8296 32.2299 43.6997 32.2035 43.5435 32.2035H42.8315V35.7806H41.9526V31.515ZM44.3374 35.7806L43.3647 33.8793L44.2935 33.8734L45.2778 35.7396V35.7806H44.3374ZM48.9517 34.2601H47.8647V33.5746H48.9517C49.1196 33.5746 49.2563 33.5472 49.3618 33.4926C49.4673 33.4359 49.5444 33.3578 49.5933 33.2582C49.6421 33.1586 49.6665 33.0463 49.6665 32.9213C49.6665 32.7943 49.6421 32.6761 49.5933 32.5668C49.5444 32.4574 49.4673 32.3695 49.3618 32.3031C49.2563 32.2367 49.1196 32.2035 48.9517 32.2035H48.1694V35.7806H47.2905V31.515H48.9517C49.2856 31.515 49.5718 31.5756 49.8101 31.6967C50.0503 31.8158 50.2339 31.9808 50.3608 32.1918C50.4878 32.4027 50.5513 32.6439 50.5513 32.9154C50.5513 33.1908 50.4878 33.4291 50.3608 33.6302C50.2339 33.8314 50.0503 33.9867 49.8101 34.0961C49.5718 34.2054 49.2856 34.2601 48.9517 34.2601ZM54.02 35.0951V35.7806H51.7495V35.0951H54.02ZM52.0366 31.515V35.7806H51.1577V31.515H52.0366ZM53.7241 33.2523V33.9203H51.7495V33.2523H53.7241ZM54.0171 31.515V32.2035H51.7495V31.515H54.0171ZM56.4985 31.515V35.7806H55.6226V31.515H56.4985ZM57.811 31.515V32.2035H54.3306V31.515H57.811ZM61.1743 35.0951V35.7806H58.9038V35.0951H61.1743ZM59.1909 31.515V35.7806H58.312V31.515H59.1909ZM60.8784 33.2523V33.9203H58.9038V33.2523H60.8784ZM61.1714 31.515V32.2035H58.9038V31.515H61.1714ZM61.687 31.515H63.2778C63.604 31.515 63.8843 31.5638 64.1187 31.6615C64.355 31.7592 64.5366 31.9037 64.6636 32.0951C64.7905 32.2865 64.854 32.5219 64.854 32.8011C64.854 33.0297 64.8149 33.226 64.7368 33.39C64.6606 33.5521 64.5522 33.6879 64.4116 33.7972C64.2729 33.9047 64.1099 33.9906 63.9224 34.0551L63.644 34.2015H62.2612L62.2554 33.516H63.2837C63.438 33.516 63.5659 33.4886 63.6675 33.434C63.769 33.3793 63.8452 33.3031 63.896 33.2054C63.9487 33.1078 63.9751 32.9945 63.9751 32.8656C63.9751 32.7289 63.9497 32.6107 63.8989 32.5111C63.8481 32.4115 63.771 32.3353 63.6675 32.2826C63.564 32.2299 63.4341 32.2035 63.2778 32.2035H62.5659V35.7806H61.687V31.515ZM64.0718 35.7806L63.0991 33.8793L64.0278 33.8734L65.0122 35.7396V35.7806H64.0718ZM67.7515 34.6644C67.7515 34.5883 67.7397 34.5199 67.7163 34.4594C67.6948 34.3969 67.6538 34.3402 67.5933 34.2894C67.5327 34.2367 67.4478 34.1849 67.3384 34.1342C67.229 34.0834 67.0874 34.0306 66.9136 33.976C66.7202 33.9135 66.5366 33.8431 66.3628 33.765C66.1909 33.6869 66.0386 33.5961 65.9058 33.4926C65.7749 33.3871 65.6714 33.265 65.5952 33.1263C65.521 32.9877 65.4839 32.8265 65.4839 32.6429C65.4839 32.4652 65.5229 32.3041 65.6011 32.1595C65.6792 32.0131 65.7886 31.8881 65.9292 31.7845C66.0698 31.6791 66.2358 31.598 66.4272 31.5414C66.6206 31.4847 66.8325 31.4564 67.063 31.4564C67.3774 31.4564 67.6519 31.5131 67.8862 31.6263C68.1206 31.7396 68.3022 31.8949 68.4312 32.0922C68.562 32.2894 68.6274 32.515 68.6274 32.7689H67.7544C67.7544 32.6439 67.728 32.5345 67.6753 32.4408C67.6245 32.3451 67.5464 32.2699 67.4409 32.2152C67.3374 32.1605 67.2065 32.1332 67.0483 32.1332C66.896 32.1332 66.769 32.1566 66.6675 32.2035C66.5659 32.2484 66.4897 32.3099 66.439 32.3881C66.3882 32.4642 66.3628 32.5502 66.3628 32.6459C66.3628 32.7181 66.3804 32.7836 66.4155 32.8422C66.4526 32.9008 66.5073 32.9554 66.5796 33.0062C66.6519 33.057 66.7407 33.1049 66.8462 33.1498C66.9517 33.1947 67.0737 33.2386 67.2124 33.2816C67.4448 33.3519 67.6489 33.431 67.8247 33.5189C68.0024 33.6068 68.1509 33.7054 68.27 33.8148C68.3892 33.9242 68.479 34.0482 68.5396 34.1869C68.6001 34.3256 68.6304 34.4828 68.6304 34.6586C68.6304 34.8441 68.5942 35.0101 68.522 35.1566C68.4497 35.3031 68.3452 35.4271 68.2085 35.5287C68.0718 35.6302 67.9087 35.7074 67.7192 35.7601C67.5298 35.8129 67.3179 35.8392 67.0835 35.8392C66.8726 35.8392 66.6646 35.8119 66.4595 35.7572C66.2544 35.7006 66.0679 35.6156 65.8999 35.5023C65.7339 35.389 65.6011 35.2445 65.5015 35.0687C65.4019 34.8929 65.3521 34.6849 65.3521 34.4447H66.2339C66.2339 34.5775 66.2544 34.6898 66.2954 34.7816C66.3364 34.8734 66.394 34.9476 66.4683 35.0043C66.5444 35.0609 66.6343 35.1019 66.7378 35.1273C66.8433 35.1527 66.9585 35.1654 67.0835 35.1654C67.2358 35.1654 67.3608 35.1439 67.4585 35.101C67.5581 35.058 67.6313 34.9984 67.6782 34.9222C67.7271 34.8461 67.7515 34.7601 67.7515 34.6644Z"/>
</symbol>
<symbol id="client-3" viewBox="0 0 104 56" >
<path d="M36.8098 49.2233C36.8259 49.2236 36.8418 49.2268 36.8565 49.2324C36.8712 49.2381 36.8844 49.2462 36.8954 49.2563L37.1162 49.4639C36.9448 49.6319 36.733 49.7662 36.4951 49.8578C36.2167 49.9577 35.9165 50.0059 35.6146 49.9993C35.3309 50.0043 35.049 49.9593 34.7865 49.8672C34.5497 49.7826 34.337 49.6555 34.1626 49.4945C33.9848 49.3275 33.8477 49.1319 33.7596 48.919C33.6632 48.6817 33.6155 48.4319 33.6189 48.1807C33.6149 47.9279 33.6664 47.6766 33.7707 47.44C33.8671 47.2258 34.0126 47.0301 34.1985 46.8645C34.387 46.702 34.6125 46.5744 34.861 46.4894C35.1329 46.3994 35.4224 46.3545 35.714 46.3573C35.9848 46.3517 36.2542 46.3926 36.5062 46.4776C36.7248 46.5587 36.9255 46.6712 37.0997 46.8102L36.9147 47.0319C36.9019 47.0475 36.8861 47.0611 36.8678 47.072C36.846 47.0848 36.8196 47.0907 36.7933 47.0886C36.7646 47.0869 36.737 47.0787 36.7132 47.065L36.6138 47.006L36.4758 46.9305C36.4162 46.9025 36.3544 46.8781 36.2909 46.8574C36.209 46.8324 36.125 46.8126 36.0397 46.7984C35.9314 46.7814 35.8213 46.7735 35.7112 46.7748C35.5012 46.7726 35.2929 46.8063 35.0984 46.8739C34.917 46.9365 34.7533 47.0314 34.6181 47.1522C34.4805 47.2807 34.3744 47.4315 34.3062 47.5957C34.2284 47.7835 34.1901 47.9815 34.193 48.1807C34.1897 48.3829 34.228 48.5841 34.3062 48.7751C34.3735 48.9378 34.4776 49.0877 34.6126 49.2162C34.739 49.336 34.8957 49.4295 35.0708 49.4898C35.251 49.5536 35.4444 49.5857 35.6394 49.5842C35.7521 49.5856 35.8647 49.5793 35.9762 49.5653C36.1582 49.5463 36.3328 49.4923 36.4869 49.4072C36.5641 49.3637 36.6371 49.3148 36.7049 49.261C36.7333 49.2379 36.7706 49.2244 36.8098 49.2233Z"/>
<path d="M43.1861 48.1803C43.1896 48.4305 43.139 48.6792 43.0371 48.9138C42.9471 49.1266 42.8054 49.3207 42.6213 49.4834C42.4371 49.646 42.2148 49.7734 41.9688 49.8573C41.4284 50.0334 40.831 50.0334 40.2906 49.8573C40.0462 49.7721 39.8253 49.6444 39.6419 49.4822C39.4579 49.3167 39.3151 49.1209 39.2223 48.9067C39.0235 48.4317 39.0235 47.9124 39.2223 47.4373C39.3165 47.2231 39.459 47.0267 39.6419 46.8595C39.8268 46.7024 40.0476 46.5796 40.2906 46.4986C40.8303 46.3193 41.4291 46.3193 41.9688 46.4986C42.214 46.5837 42.4359 46.7114 42.6203 46.8736C42.802 47.0376 42.9437 47.2308 43.0371 47.442C43.1393 47.6782 43.1899 47.9285 43.1861 48.1803ZM42.6065 48.1803C42.6108 47.9801 42.5753 47.7807 42.5016 47.5906C42.4397 47.4278 42.3392 47.2777 42.2062 47.1496C42.0768 47.0284 41.9174 46.9333 41.7397 46.8713C41.347 46.7423 40.9123 46.7423 40.5197 46.8713C40.3419 46.9333 40.1826 47.0284 40.0532 47.1496C39.9184 47.2769 39.8168 47.4272 39.7551 47.5906C39.6146 47.9746 39.6146 48.386 39.7551 48.7699C39.8174 48.9331 39.9189 49.0833 40.0532 49.211C40.1828 49.3315 40.3421 49.4257 40.5197 49.487C40.913 49.6126 41.3463 49.6126 41.7397 49.487C41.9173 49.4257 42.0766 49.3315 42.2062 49.211C42.3386 49.0826 42.4391 48.9325 42.5016 48.7699C42.5757 48.5799 42.6111 48.3805 42.6065 48.1803Z"/>
<path d="M47.5365 48.7987L47.5944 48.9308C47.6165 48.8836 47.6358 48.8412 47.6579 48.7987C47.679 48.7544 47.7029 48.7111 47.7297 48.669L49.1402 46.4781C49.1678 46.4404 49.1927 46.4168 49.2203 46.4097C49.2578 46.4 49.297 46.396 49.3362 46.3979H49.753V49.9614H49.2589V47.3413C49.2589 47.3083 49.2589 47.2705 49.2589 47.2304C49.2562 47.1896 49.2562 47.1486 49.2589 47.1078L47.8401 49.3293C47.8221 49.3626 47.7933 49.3908 47.757 49.4104C47.7208 49.4301 47.6787 49.4404 47.6358 49.4402H47.5558C47.5128 49.4407 47.4706 49.4305 47.4343 49.4108C47.398 49.3911 47.3692 49.3628 47.3515 49.3293L45.8913 47.0937C45.8913 47.1361 45.8913 47.1786 45.8913 47.221C45.8913 47.2635 45.8913 47.3012 45.8913 47.3342V49.9543H45.4138V46.3979H45.8306C45.8697 46.396 45.909 46.4 45.9465 46.4097C45.9807 46.4242 46.008 46.4484 46.0238 46.4781L47.4647 48.6714C47.493 48.7119 47.517 48.7545 47.5365 48.7987Z"/>
<path d="M52.8447 48.6217V49.9564H52.2926V46.3978H53.5237C53.7561 46.394 53.9878 46.4202 54.211 46.4756C54.3897 46.5189 54.5554 46.5945 54.6969 46.6973C54.8195 46.7937 54.914 46.9132 54.9729 47.0463C55.0381 47.1915 55.0699 47.346 55.0667 47.5015C55.0692 47.6576 55.0344 47.8124 54.9646 47.9566C54.8983 48.0932 54.7963 48.215 54.6665 48.3127C54.5249 48.4198 54.3584 48.5002 54.1779 48.5486C53.963 48.6072 53.7382 48.6351 53.5127 48.6311L52.8447 48.6217ZM52.8447 48.2396H53.5127C53.6578 48.2412 53.8022 48.2229 53.9405 48.1854C54.0546 48.1526 54.1598 48.1004 54.2497 48.0321C54.3326 47.9668 54.3968 47.8862 54.4374 47.7963C54.4826 47.7012 54.5051 47.5994 54.5036 47.4968C54.5101 47.3978 54.4912 47.2989 54.4483 47.2069C54.4054 47.1148 54.3395 47.0319 54.2552 46.9638C54.0443 46.8231 53.7794 46.755 53.5127 46.7728H52.8447V48.2396Z"/>
<path d="M60.2645 49.9613H59.8283C59.7846 49.9627 59.7416 49.951 59.7069 49.9282C59.6756 49.906 59.651 49.8777 59.6351 49.8457L59.2597 48.9848H57.3744L56.9852 49.8457C56.9709 49.8772 56.9471 49.9048 56.9162 49.9259C56.8811 49.95 56.837 49.9626 56.792 49.9613H56.3558L58.012 46.3975H58.5862L60.2645 49.9613ZM57.5317 48.6381H59.0886L58.4316 47.1876C58.3814 47.0785 58.3399 46.9666 58.3074 46.8527L58.2439 47.039C58.2246 47.0956 58.2025 47.1475 58.1832 47.1899L57.5317 48.6381Z"/>
<path d="M62.6495 46.414C62.6825 46.4295 62.7109 46.4513 62.7323 46.4777L65.1476 49.1641C65.1476 49.1216 65.1476 49.0792 65.1476 49.0391C65.1476 48.999 65.1476 48.9589 65.1476 48.9212V46.3975H65.6417V49.9613H65.3657C65.3265 49.9623 65.2876 49.955 65.2525 49.9401C65.2184 49.9231 65.1884 49.9006 65.1642 49.874L62.7517 47.19C62.7543 47.2309 62.7543 47.2718 62.7517 47.3126C62.7517 47.3527 62.7517 47.3881 62.7517 47.4211V49.9613H62.2576V46.3975H62.5502C62.5843 46.3967 62.6182 46.4024 62.6495 46.414Z"/>
<path d="M69.7104 48.5438V49.9589H69.1583V48.5438L67.6318 46.3975H68.1259C68.1685 46.3954 68.2106 46.4062 68.2446 46.4282C68.2747 46.4511 68.2999 46.4782 68.3192 46.5084L69.2743 47.8928C69.3129 47.9518 69.346 48.006 69.3736 48.0579C69.4012 48.1098 69.4233 48.1593 69.4426 48.2089L69.5144 48.0556C69.5412 47.9995 69.5726 47.9451 69.6083 47.8928L70.5495 46.4989C70.5693 46.4711 70.5935 46.4457 70.6213 46.4235C70.6541 46.399 70.6966 46.3864 70.74 46.3881H71.2396L69.7104 48.5438Z"/>
<path d="M47.2632 40.417C47.5033 40.4429 47.7462 40.4642 47.9919 40.483C51.7165 39.0595 54.8673 36.7295 57.0506 33.7844C59.2338 30.8393 60.3527 27.4097 60.2672 23.9243L56.1626 20.4172C56.9972 24.1281 56.6068 27.9642 55.0351 31.4963C53.4634 35.0284 50.7724 38.1171 47.2632 40.417Z"/>
<path d="M45.7975 40.2539L45.9079 40.2728C49.6578 37.9811 52.5168 34.7809 54.1151 31.0861C55.7135 27.3912 55.9776 23.3717 54.8735 19.5472L49.0271 14.5521C51.3918 18.658 52.3436 23.253 51.7719 27.8029C51.2002 32.3528 49.1284 36.6705 45.7975 40.2539Z"/>
<path d="M65.6251 28.0424C64.6318 31.872 62.2195 35.3258 58.7463 37.8911C57.7319 38.6444 56.6378 39.3155 55.478 39.8957C58.3062 39.1855 60.9057 37.9298 63.0761 36.2255C65.2465 34.5213 66.9298 32.4139 67.9962 30.0659L65.6251 28.0424Z"/>
<path d="M64.6948 27.4784L61.3189 24.594C61.2544 27.8825 60.1602 31.0963 58.15 33.9012C56.1399 36.7062 53.2871 39 49.8883 40.5442H49.9049C50.6623 40.5439 51.419 40.5053 52.1711 40.4286C55.3475 39.3209 58.1535 37.5586 60.3388 35.2989C62.524 33.0392 64.0206 30.3525 64.6948 27.4784Z"/>
<path d="M46.2861 12.4457L42.2587 9C38.6584 10.1887 35.562 12.2784 33.3747 14.9955C31.1875 17.7127 30.0112 20.9308 30 24.2285V24.2285C30.0135 27.8725 31.449 31.4085 34.0793 34.2769C36.7096 37.1454 40.3845 39.1824 44.5222 40.0656C48.216 36.2205 50.3786 31.4693 50.6958 26.5023C51.013 21.5353 49.4683 16.6113 46.2861 12.4457Z"/>
<path d="M74 26.9478C73.9854 22.6245 71.9689 18.4818 68.3908 15.4247C64.8127 12.3676 59.964 10.6447 54.9039 10.6322C52.5657 10.6301 50.2473 10.9988 48.0665 11.7194L72.7247 32.7873C73.569 30.925 74.0015 28.945 74 26.9478Z"/>
</symbol>
<symbol id="client-2" viewBox="0 0 104 56" >
<path fill-rule="evenodd" clip-rule="evenodd" d="M50.1136 5.93452H49.977C49.7671 5.92181 49.5571 5.91672 49.3471 5.91163H49.3471H49.3269H48.8918C48.4946 5.91163 48.0898 5.92181 47.6876 5.94215C47.6573 5.93994 47.6269 5.93994 47.5966 5.94215C43.9522 6.14863 40.3817 7.05951 37.0805 8.62492L36.6479 8.83344V30.9746L37.6598 30.6313C38.5477 30.3261 39.4938 30.0515 40.4728 29.7972C43.1193 29.1178 45.8367 28.7567 48.568 28.7216V31.6306C48.2062 31.6332 47.8546 31.6434 47.503 31.6612H47.4195C45.3175 31.7765 43.2317 32.0967 41.1913 32.6173C38.6072 33.2643 36.1143 34.2357 33.7716 35.5086V7.11189C36.2047 5.69275 38.8253 4.62687 41.5556 3.94596C43.9527 3.32705 46.4169 3.00931 48.8918 3H49.3193C49.8303 3.01271 50.3287 3.0356 50.7967 3.0712C52.0297 3.15778 53.2528 3.35263 54.4521 3.65353V6.51685C53.2874 6.24551 52.1032 6.06695 50.9105 5.98284C50.8863 5.98079 50.8621 5.97872 50.8379 5.97666C50.5911 5.95561 50.344 5.93452 50.1136 5.93452ZM55.1528 8.86138C55.7877 8.9097 56.4455 8.93259 57.1108 8.93259C59.7125 8.92307 62.3031 8.59083 64.8239 7.94339C67.4068 7.29396 69.8986 6.32178 72.2411 5.04956V32.9402C69.8067 34.3585 67.1853 35.4243 64.4546 36.1061C62.0571 36.7227 59.5931 37.0395 57.1184 37.0496C55.2433 37.0647 53.3737 36.8443 51.553 36.3935V8.32229C51.983 8.42146 52.4257 8.51301 52.876 8.58929C53.6147 8.7139 54.3939 8.80544 55.1528 8.86138ZM69.3471 9.07753L68.3352 9.41828C67.4042 9.73106 66.4657 10.0108 65.5221 10.26C62.7749 10.966 59.9514 11.3281 57.1158 11.3382C56.4556 11.3382 55.8485 11.3204 55.2616 11.2822L54.4546 11.2288V31.3178V34.0057L55.1477 34.0667C55.7903 34.1227 56.4531 34.1506 57.1209 34.1506C59.3544 34.1412 61.5781 33.8533 63.7412 33.2937C65.5223 32.8469 67.2552 32.2243 68.9145 31.4348L69.3471 31.2263V9.07753Z"/>
<path d="M35.7371 45.2124C35.5917 45.0615 35.4163 44.943 35.2224 44.8646C35.0284 44.7862 34.8203 44.7496 34.6114 44.7572C34.3888 44.7542 34.1678 44.7957 33.9613 44.8793C33.7719 44.9547 33.5998 45.068 33.4553 45.2124C33.3125 45.3572 33.2013 45.5304 33.129 45.721C33.0497 45.9207 33.0101 46.1341 33.0126 46.3491V50.1431C33.0036 50.4104 33.0546 50.6764 33.1619 50.9212C33.2514 51.1156 33.3807 51.2889 33.5413 51.4298C33.693 51.5575 33.871 51.6495 34.0625 51.6994C34.2469 51.7512 34.4376 51.7777 34.6291 51.7782C34.8404 51.7803 35.0495 51.7351 35.2413 51.646C35.4309 51.563 35.6028 51.4438 35.7473 51.295C35.8881 51.1476 36.0005 50.9752 36.0786 50.7864C36.1597 50.5951 36.201 50.3892 36.2001 50.1812V49.7566H35.2084V50.0948C35.2114 50.2103 35.1916 50.3252 35.1502 50.433C35.1179 50.5137 35.0688 50.5866 35.006 50.6466C34.9446 50.6962 34.8742 50.7334 34.7986 50.7559C34.7316 50.7782 34.6617 50.7902 34.5912 50.7915C34.5026 50.8018 34.413 50.7885 34.3312 50.7527C34.2495 50.717 34.1786 50.6602 34.1257 50.5881C34.0322 50.4356 33.9864 50.2585 33.9942 50.0795V46.5423C33.988 46.3462 34.0297 46.1515 34.1156 45.9753C34.1671 45.8952 34.2399 45.8313 34.3258 45.7908C34.4117 45.7503 34.5071 45.7349 34.6013 45.7464C34.6868 45.7434 34.7717 45.7612 34.8488 45.7984C34.9259 45.8356 34.9929 45.8911 35.044 45.96C35.155 46.1057 35.213 46.2852 35.2084 46.4686V46.7966H36.19V46.4101C36.1919 46.1831 36.1507 45.9578 36.0685 45.7464C35.9953 45.5476 35.8825 45.3659 35.7371 45.2124Z"/>
<path d="M41.6289 45.1691C41.3127 44.9021 40.9136 44.7546 40.5007 44.7521C40.2987 44.7529 40.0984 44.7891 39.9087 44.8589C39.7161 44.9279 39.5384 45.0332 39.3851 45.1691C39.2208 45.3168 39.0897 45.498 39.0005 45.7006C38.9006 45.9323 38.8515 46.183 38.8563 46.4355V50.0744C38.8495 50.3304 38.8987 50.5847 39.0005 50.8195C39.0903 51.0151 39.2215 51.1887 39.3851 51.328C39.5367 51.4688 39.7147 51.5777 39.9087 51.6485C40.0984 51.7183 40.2987 51.7544 40.5007 51.7553C40.7027 51.7549 40.9031 51.7187 41.0926 51.6485C41.29 51.5767 41.4719 51.468 41.6289 51.328C41.7871 51.1861 41.9145 51.013 42.0033 50.8195C42.1051 50.5847 42.1544 50.3304 42.1475 50.0744V46.4355C42.1524 46.183 42.1032 45.9323 42.0033 45.7006C41.9151 45.5001 41.7878 45.3194 41.6289 45.1691ZM41.166 50.0744C41.1743 50.1714 41.1609 50.269 41.1268 50.3601C41.0926 50.4512 41.0386 50.5334 40.9687 50.6008C40.8377 50.7106 40.6725 50.7708 40.5019 50.7708C40.3313 50.7708 40.1662 50.7106 40.0352 50.6008C39.9652 50.5334 39.9112 50.4512 39.8771 50.3601C39.8429 50.269 39.8295 50.1714 39.8379 50.0744V46.4355C39.8295 46.3385 39.8429 46.2409 39.8771 46.1498C39.9112 46.0587 39.9652 45.9764 40.0352 45.9091C40.1662 45.7993 40.3313 45.7391 40.5019 45.7391C40.6725 45.7391 40.8377 45.7993 40.9687 45.9091C41.0386 45.9764 41.0926 46.0587 41.1268 46.1498C41.1609 46.2409 41.1743 46.3385 41.166 46.4355V50.0744Z"/>
<path d="M49.3673 51.6994V44.8107H48.4136L47.1614 48.4572H47.1437L45.8813 44.8107H44.9377V51.6994H45.9218V47.5087H45.9395L46.9033 50.4712H47.3941L48.3655 47.5087H48.3832V51.6994H49.3673Z"/>
<path d="M54.9581 45.2937C54.8065 45.1237 54.6153 44.9943 54.4015 44.9173C54.1712 44.8424 53.9302 44.8063 53.6881 44.8105H52.226V51.6993H53.2075V49.0089H53.7134C54.0197 49.0228 54.3244 48.958 54.5988 48.8207C54.822 48.6968 55.0081 48.515 55.1377 48.2943C55.2512 48.1111 55.3277 47.9071 55.3628 47.6942C55.4014 47.435 55.4192 47.173 55.4159 46.911C55.4255 46.5802 55.3932 46.2495 55.3198 45.9269C55.2543 45.6885 55.1299 45.4706 54.9581 45.2937ZM54.4521 47.3941C54.4479 47.5188 54.4168 47.6412 54.361 47.7527C54.3049 47.8586 54.2162 47.9434 54.1081 47.9942C53.9627 48.0593 53.8041 48.0889 53.6451 48.0807H53.1974V45.7387H53.7033C53.8557 45.7312 54.0075 45.7609 54.146 45.8251C54.2475 45.8834 54.3281 45.9724 54.3762 46.0794C54.4299 46.2004 54.4591 46.331 54.4622 46.4634C54.4622 46.6084 54.4622 46.7609 54.4622 46.9211C54.4622 47.0813 54.4723 47.2466 54.4622 47.3941H54.4521Z"/>
<path d="M59.6077 44.8107H58.8032L57.2854 51.6994H58.2669L58.5553 50.2194H59.8935L60.1819 51.6994H61.1635L59.6077 44.8107ZM58.702 49.2811L59.1852 46.784H59.2029L59.6836 49.2811H58.702Z"/>
<path d="M65.9497 48.9607H65.932L64.4496 44.8107H63.506V51.6994H64.4875V47.557H64.5078L66.0079 51.6994H66.9312V44.8107H65.9497V48.9607Z"/>
<path d="M71.9476 44.8107L71.1583 47.5494H71.1381L70.3488 44.8107H69.3091L70.6574 48.7878V51.6994H71.639V48.7878L72.9873 44.8107H71.9476Z"/>
<path d="M33 53.6445H33.4731V54.9719H33.7943V53.6445H34.2649V53.3724H33V53.6445Z"/>
<path d="M36.9767 53.3724L36.3569 54.9719H36.6984L36.83 54.6083H37.4675L37.6041 54.9719H37.9532L37.3182 53.3724H36.9767ZM36.9261 54.3387L37.1437 53.7462L37.3612 54.3387H36.9261Z"/>
<path d="M40.9079 54.3821H41.2773V54.5881C41.1694 54.6746 41.0358 54.722 40.8978 54.7229C40.8333 54.7265 40.7689 54.7145 40.7099 54.688C40.6509 54.6614 40.5991 54.6211 40.5588 54.5703C40.474 54.4485 40.4322 54.3017 40.4399 54.1533C40.4399 53.7973 40.5942 53.6193 40.9003 53.6193C40.9809 53.6112 41.0617 53.6325 41.128 53.6791C41.1944 53.7257 41.2419 53.7947 41.2621 53.8735L41.5783 53.8125C41.51 53.4997 41.2849 53.3421 40.9003 53.3421C40.6947 53.3366 40.4947 53.4103 40.3413 53.5481C40.2607 53.6276 40.1983 53.7239 40.1586 53.8302C40.1188 53.9365 40.1026 54.0502 40.1111 54.1634C40.1017 54.3823 40.1749 54.5966 40.316 54.7636C40.3943 54.8444 40.4892 54.9071 40.594 54.9475C40.6988 54.9879 40.8111 55.0049 40.9231 54.9975C41.1734 55.0045 41.4165 54.9133 41.6011 54.7432V54.1126H40.9079V54.3821Z"/>
<path d="M44.9226 53.3724H44.5988V54.9719H45.7194V54.6998H44.9226V53.3724Z"/>
<path d="M48.3175 53.3724H47.9937V54.9719H48.3175V53.3724Z"/>
<path d="M51.6365 54.4405L50.9813 53.3724H50.6676V54.9719H50.9686V53.9268L51.6112 54.9719H51.9325V53.3724H51.6365V54.4405Z"/>
<path d="M54.6368 54.2675H55.4337V53.9954H54.6368V53.6445H55.4944V53.3724H54.313V54.9719H55.5273V54.6998H54.6368V54.2675Z"/>
<path d="M61.9122 54.0031H61.2823V53.3724H60.9611V54.9719H61.2823V54.2726H61.9122V54.9719H62.2335V53.3724H61.9122V54.0031Z"/>
<path d="M64.9302 54.2675H65.7296V53.9954H64.9302V53.6445H65.7903V53.3724H64.6089V54.9719H65.8206V54.6998H64.9302V54.2675Z"/>
<path d="M69.0233 54.2676C69.3015 54.2244 69.4432 54.0769 69.4432 53.8226C69.4513 53.7546 69.441 53.6856 69.4134 53.623C69.3858 53.5603 69.3419 53.5063 69.2863 53.4666C69.1415 53.3938 68.9799 53.3614 68.8183 53.3725H68.1404V54.972H68.4617V54.3032H68.5249C68.5934 54.299 68.6619 54.3112 68.7247 54.3388C68.7717 54.3678 68.8108 54.4079 68.8386 54.4558L69.1877 54.9644H69.5722L69.3774 54.6516C69.2913 54.4972 69.1699 54.3656 69.0233 54.2676ZM68.6994 54.0464H68.4617V53.6446H68.7146C68.8248 53.6357 68.9357 53.6486 69.041 53.6827C69.0644 53.7034 69.0828 53.7291 69.095 53.7579C69.1072 53.7867 69.1127 53.8179 69.1113 53.8492C69.1098 53.8804 69.1014 53.911 69.0866 53.9385C69.0718 53.966 69.051 53.9899 69.0258 54.0082C68.9202 54.0406 68.8096 54.0535 68.6994 54.0464Z"/>
<path d="M72.1096 54.2675H72.9064V53.9954H72.1096V53.6445H72.9697V53.3724H71.7858V54.9719H73V54.6998H72.1096V54.2675Z"/>
</symbol>
<symbol id="client-1" viewBox="0 0 104 56" >
<path fill-rule="evenodd" clip-rule="evenodd" d="M38 7L45.0078 13.6764L32 13.6687V46.0609H66V33.6758L73 40.3448V7H38ZM65.6924 32.8922L45.8226 13.962H65.6924V32.8922ZM59.5231 41.3227H37.3801V19.5373H38.9453V39.8475H59.5231V41.3227ZM41.7959 52.0611L40.9707 50.3643H40.2896L41.4858 52.6104V53.919H42.1035V52.6104L43.2998 50.3643H42.6211L41.7959 52.0611ZM44.8379 50.3643H44.9844L46.3271 53.919H45.6826L45.395 53.0865H44.0189L43.7319 53.919H43.0898L44.4277 50.3643H44.5718H44.8379ZM44.1864 52.6007H45.2271L44.7062 51.0927L44.1864 52.6007ZM48.4821 52.0117C48.4553 51.9776 48.4295 51.9445 48.4048 51.9122C48.3136 51.7917 48.2428 51.6754 48.1924 51.5631C48.1419 51.4491 48.1167 51.3319 48.1167 51.2115C48.1167 51.026 48.1549 50.8665 48.2314 50.733C48.3079 50.5995 48.4162 50.497 48.5562 50.4254C48.6961 50.3521 48.8597 50.3155 49.0469 50.3155C49.2275 50.3155 49.383 50.3521 49.5132 50.4254C49.645 50.497 49.7459 50.5922 49.8159 50.711C49.8875 50.8298 49.9233 50.96 49.9233 51.1016C49.9233 51.2139 49.903 51.3165 49.8623 51.4093C49.8216 51.502 49.7655 51.5867 49.6938 51.6632C49.6222 51.7397 49.5392 51.8121 49.4448 51.8805L49.1979 52.0602L49.9018 52.8909C49.925 52.8453 49.946 52.7973 49.9648 52.7472C50.0251 52.5909 50.0552 52.4176 50.0552 52.2271H50.563C50.563 52.3997 50.5459 52.5632 50.5117 52.7179C50.4792 52.8725 50.4263 53.0157 50.353 53.1475C50.3233 53.2022 50.2897 53.2545 50.2522 53.3044L50.7729 53.919H50.0918L49.8852 53.676C49.7734 53.7609 49.6518 53.8272 49.5205 53.8751C49.348 53.9369 49.1641 53.9679 48.9688 53.9679C48.7327 53.9679 48.5285 53.9247 48.356 53.8385C48.1834 53.7522 48.05 53.6334 47.9556 53.482C47.8628 53.3306 47.8164 53.1573 47.8164 52.962C47.8164 52.8171 47.8465 52.6902 47.9067 52.5811C47.967 52.4705 48.0492 52.3679 48.1533 52.2735C48.2495 52.1862 48.3591 52.099 48.4821 52.0117ZM48.7738 52.3689L48.7002 52.4224C48.6139 52.4924 48.5496 52.56 48.5073 52.6251C48.4666 52.6886 48.4398 52.7472 48.4268 52.8009C48.4137 52.8546 48.4072 52.9018 48.4072 52.9425C48.4072 53.0466 48.4292 53.141 48.4731 53.2257C48.5187 53.3103 48.5846 53.3778 48.6709 53.4283C48.7588 53.4771 48.8654 53.5015 48.9907 53.5015C49.1258 53.5015 49.2568 53.4714 49.3838 53.4112C49.4474 53.3802 49.5078 53.3429 49.5648 53.2992L48.7738 52.3689ZM48.9143 51.7196L49.1323 51.5728C49.2349 51.5045 49.3081 51.4377 49.3521 51.3726C49.396 51.3059 49.418 51.2229 49.418 51.1236C49.418 51.039 49.3854 50.9609 49.3203 50.8892C49.2552 50.8176 49.1632 50.7818 49.0444 50.7818C48.9614 50.7818 48.8914 50.8013 48.8345 50.8404C48.7775 50.8778 48.7344 50.9283 48.7051 50.9918C48.6774 51.0536 48.6636 51.1228 48.6636 51.1993C48.6636 51.2725 48.6823 51.3482 48.7197 51.4263C48.7572 51.5028 48.8084 51.5834 48.8735 51.668C48.8868 51.685 48.9004 51.7021 48.9143 51.7196ZM55.1333 52.7618H54.5229C54.505 52.9164 54.4676 53.0474 54.4106 53.1549C54.3553 53.2607 54.2731 53.3412 54.1641 53.3966C54.0566 53.4519 53.9159 53.4796 53.7417 53.4796C53.5985 53.4796 53.4756 53.4511 53.373 53.3941C53.2705 53.3372 53.1859 53.2566 53.1191 53.1524C53.054 53.0483 53.0052 52.9237 52.9727 52.7789C52.9417 52.6324 52.9263 52.4696 52.9263 52.2906V51.9903C52.9263 51.8015 52.9434 51.6339 52.9775 51.4874C53.0133 51.3393 53.0662 51.2148 53.1362 51.1138C53.2062 51.0129 53.2933 50.9364 53.3975 50.8844C53.5016 50.8323 53.6237 50.8062 53.7637 50.8062C53.9346 50.8062 54.0729 50.8355 54.1787 50.8941C54.2845 50.9511 54.3643 51.0341 54.418 51.1431C54.4733 51.2522 54.5091 51.3832 54.5254 51.5362H55.1357C55.1113 51.2986 55.0446 51.0878 54.9355 50.9039C54.8281 50.72 54.6768 50.5759 54.4814 50.4718C54.2861 50.3676 54.0469 50.3155 53.7637 50.3155C53.5407 50.3155 53.3397 50.3546 53.1606 50.4327C52.9832 50.5108 52.8311 50.6239 52.7041 50.7721C52.5771 50.9185 52.4795 51.0951 52.4111 51.3018C52.3444 51.5085 52.311 51.7397 52.311 51.9952V52.2906C52.311 52.5461 52.3436 52.7773 52.4087 52.984C52.4754 53.1907 52.5715 53.3673 52.6968 53.5138C52.8221 53.6586 52.9727 53.7709 53.1484 53.8507C53.3242 53.9288 53.522 53.9679 53.7417 53.9679C54.0282 53.9679 54.2715 53.9158 54.4717 53.8116C54.6719 53.7074 54.8273 53.565 54.938 53.3844C55.0487 53.2021 55.1138 52.9945 55.1333 52.7618ZM58.5244 52.2393V52.044C58.5244 51.7755 58.4886 51.5354 58.417 51.3238C58.347 51.1106 58.2469 50.9291 58.1167 50.7794C57.9865 50.628 57.8311 50.5133 57.6504 50.4351C57.4697 50.3554 57.2695 50.3155 57.0498 50.3155C56.8317 50.3155 56.6323 50.3554 56.4517 50.4351C56.2726 50.5133 56.1172 50.628 55.9854 50.7794C55.8551 50.9291 55.7542 51.1106 55.6826 51.3238C55.611 51.5354 55.5752 51.7755 55.5752 52.044V52.2393C55.5752 52.5079 55.611 52.7488 55.6826 52.962C55.7559 53.1752 55.8584 53.3567 55.9902 53.5064C56.1221 53.6562 56.2775 53.7709 56.4565 53.8507C56.6372 53.9288 56.8366 53.9679 57.0547 53.9679C57.2744 53.9679 57.4746 53.9288 57.6553 53.8507C57.8359 53.7709 57.9906 53.6562 58.1191 53.5064C58.2493 53.3567 58.3494 53.1752 58.4194 52.962C58.4894 52.7488 58.5244 52.5079 58.5244 52.2393ZM57.9116 52.0391V52.2393C57.9116 52.4379 57.8921 52.6137 57.853 52.7667C57.8156 52.9197 57.7603 53.0491 57.687 53.1549C57.6138 53.259 57.5243 53.338 57.4185 53.3917C57.3127 53.4438 57.1914 53.4698 57.0547 53.4698C56.9196 53.4698 56.7992 53.4438 56.6934 53.3917C56.5876 53.338 56.4964 53.259 56.4199 53.1549C56.3451 53.0491 56.2881 52.9197 56.249 52.7667C56.21 52.6137 56.1904 52.4379 56.1904 52.2393V52.0391C56.1904 51.8406 56.21 51.6656 56.249 51.5142C56.2881 51.3612 56.3442 51.2335 56.4175 51.1309C56.4923 51.0268 56.5827 50.9486 56.6885 50.8966C56.7943 50.8429 56.9147 50.816 57.0498 50.816C57.1849 50.816 57.3062 50.8429 57.4136 50.8966C57.521 50.9486 57.6113 51.0268 57.6846 51.1309C57.7594 51.2335 57.8156 51.3612 57.853 51.5142C57.8921 51.6656 57.9116 51.8406 57.9116 52.0391Z"/>
</symbol>
<symbol id="linkedin" viewBox="0 0 32 32">
<path fill="#f4f4fd" style="fill: var(--color2, #f4f4fd)" d="M31.992 32v-0.001h0.008v-11.736c0-5.741-1.236-10.164-7.948-10.164-3.227 0-5.392 1.771-6.276 3.449h-0.093v-2.913h-6.364v21.364h6.627v-10.579c0-2.785 0.528-5.479 3.977-5.479 3.399 0 3.449 3.179 3.449 5.657v10.401h6.62z"></path>
<path fill="#f4f4fd" style="fill: var(--color2, #f4f4fd)" d="M0.528 10.636h6.635v21.364h-6.635v-21.364z"></path>
<path fill="#f4f4fd" style="fill: var(--color2, #f4f4fd)" d="M3.843-0c-2.121 0-3.843 1.721-3.843 3.843s1.721 3.879 3.843 3.879c2.121 0 3.843-1.757 3.843-3.879-0.001-2.121-1.723-3.843-3.843-3.843v0z"></path>
</symbol>
<symbol id="facebook" viewBox="0 0 32 32">
<path fill="#f4f4fd" style="fill: var(--color2, #f4f4fd)" d="M21.329 5.313h2.921v-5.088c-0.504-0.069-2.237-0.225-4.256-0.225-4.212 0-7.097 2.649-7.097 7.519v4.481h-4.648v5.688h4.648v14.312h5.699v-14.311h4.46l0.708-5.688h-5.169v-3.919c0.001-1.644 0.444-2.769 2.735-2.769z"></path>
</symbol>
<symbol id="twitter" viewBox="0 0 32 32">
<path fill="#f4f4fd" style="fill: var(--color1, #f4f4fd)" d="M32 6.078c-1.19 0.522-2.458 0.868-3.78 1.036 1.36-0.812 2.398-2.088 2.886-3.626-1.268 0.756-2.668 1.29-4.16 1.588-1.204-1.282-2.92-2.076-4.792-2.076-3.632 0-6.556 2.948-6.556 6.562 0 0.52 0.044 1.020 0.152 1.496-5.454-0.266-10.28-2.88-13.522-6.862-0.566 0.982-0.898 2.106-0.898 3.316 0 2.272 1.17 4.286 2.914 5.452-1.054-0.020-2.088-0.326-2.964-0.808 0 0.020 0 0.046 0 0.072 0 3.188 2.274 5.836 5.256 6.446-0.534 0.146-1.116 0.216-1.72 0.216-0.42 0-0.844-0.024-1.242-0.112 0.85 2.598 3.262 4.508 6.13 4.57-2.232 1.746-5.066 2.798-8.134 2.798-0.538 0-1.054-0.024-1.57-0.090 2.906 1.874 6.35 2.944 10.064 2.944 12.072 0 18.672-10 18.672-18.668 0-0.29-0.010-0.57-0.024-0.848 1.302-0.924 2.396-2.078 3.288-3.406z"></path>
</symbol>
<symbol id="instagram" viewBox="0 0 32 32">
<path fill="#f4f4fd" style="fill: var(--color2, #f4f4fd)" d="M31.969 9.408c-0.075-1.7-0.35-2.869-0.744-3.882-0.406-1.075-1.031-2.038-1.85-2.838-0.8-0.813-1.769-1.444-2.832-1.844-1.019-0.394-2.182-0.669-3.882-0.744-1.713-0.081-2.257-0.1-6.601-0.1s-4.888 0.019-6.595 0.094c-1.7 0.075-2.869 0.35-3.882 0.744-1.075 0.406-2.038 1.031-2.838 1.85-0.813 0.8-1.444 1.769-1.844 2.832-0.394 1.019-0.669 2.182-0.744 3.882-0.081 1.713-0.1 2.257-0.1 6.601s0.019 4.888 0.094 6.595c0.075 1.7 0.35 2.869 0.744 3.882 0.406 1.075 1.038 2.038 1.85 2.838 0.8 0.813 1.769 1.444 2.832 1.844 1.019 0.394 2.182 0.669 3.882 0.744 1.706 0.075 2.25 0.094 6.595 0.094s4.888-0.018 6.595-0.094c1.7-0.075 2.869-0.35 3.882-0.744 2.151-0.831 3.851-2.532 4.682-4.682 0.394-1.019 0.669-2.182 0.744-3.882 0.075-1.707 0.094-2.251 0.094-6.595s-0.006-4.888-0.081-6.595zM29.087 22.473c-0.069 1.563-0.331 2.407-0.55 2.969-0.538 1.394-1.644 2.501-3.038 3.038-0.563 0.219-1.413 0.481-2.969 0.55-1.688 0.075-2.194 0.094-6.464 0.094s-4.782-0.018-6.464-0.094c-1.563-0.069-2.407-0.331-2.969-0.55-0.694-0.256-1.325-0.663-1.838-1.194-0.531-0.519-0.938-1.144-1.194-1.838-0.219-0.563-0.481-1.413-0.55-2.969-0.075-1.688-0.094-2.194-0.094-6.464s0.019-4.782 0.094-6.464c0.069-1.563 0.331-2.407 0.55-2.969 0.256-0.694 0.663-1.325 1.2-1.838 0.519-0.531 1.144-0.938 1.838-1.194 0.563-0.219 1.413-0.481 2.969-0.55 1.688-0.075 2.194-0.094 6.464-0.094 4.276 0 4.782 0.019 6.464 0.094 1.563 0.069 2.407 0.331 2.969 0.55 0.694 0.256 1.325 0.662 1.838 1.194 0.531 0.519 0.938 1.144 1.194 1.838 0.219 0.563 0.481 1.413 0.55 2.969 0.075 1.688 0.094 2.194 0.094 6.464s-0.019 4.77-0.094 6.457z"></path>
<path fill="#f4f4fd" style="fill: var(--color2, #f4f4fd)" d="M16.059 7.782c-4.538 0-8.22 3.682-8.22 8.22s3.682 8.22 8.22 8.22c4.538 0 8.22-3.682 8.22-8.22s-3.682-8.22-8.22-8.22zM16.059 21.335c-2.944 0-5.332-2.388-5.332-5.332s2.388-5.332 5.332-5.332c2.944 0 5.332 2.388 5.332 5.332s-2.388 5.332-5.332 5.332z"></path>
<path fill="#f4f4fd" style="fill: var(--color2, #f4f4fd)" d="M26.524 7.457c0 1.060-0.859 1.919-1.919 1.919s-1.919-0.859-1.919-1.919c0-1.060 0.859-1.919 1.919-1.919s1.919 0.859 1.919 1.919z"></path>
</symbol>
<symbol id="send" viewBox="0 0 24 24">
<path d="M24 0L0 11.25L7.66994 13.6172L19.5 4.375L10.5017 14.4913L10.509 14.4936L10.5 14.4913V20L14.8013 15.8183L20.2501 17.5L24 0Z"/>
</symbol>
<symbol id="close" viewBox="0 0 8 8">
<g clip-path="url(#clip0_297024_946)">
<path id="Vector" d="M8 0.805714L7.19429 0L4 3.19429L0.805714 0L0 0.805714L3.19429 4L0 7.19429L0.805714 8L4 4.80571L7.19429 8L8 7.19429L4.80571 4L8 0.805714Z"/>
</g>
<defs>
<clipPath id="clip0_297024_946">
<rect width="8" height="8"/>
</clipPath>
</defs>
</symbol>
<symbol id="person" viewBox="0 0 18 18">
<g clip-path="url(#clip0_297039_1139)">
<path id="Vector" d="M9 9C10.6575 9 12 7.6575 12 6C12 4.3425 10.6575 3 9 3C7.3425 3 6 4.3425 6 6C6 7.6575 7.3425 9 9 9ZM9 10.5C6.9975 10.5 3 11.505 3 13.5V14.25C3 14.6625 3.3375 15 3.75 15H14.25C14.6625 15 15 14.6625 15 14.25V13.5C15 11.505 11.0025 10.5 9 10.5Z"/>
</g>
<defs>
<clipPath id="clip0_297039_1139">
<rect width="18" height="18"/>
</clipPath>
</defs>
</symbol>
<symbol id="phone" viewBox="0 0 18 24">
<g clip-path="url(#clip0_297083_8305)">
<path id="Vector" d="M14.7263 13.8651L12.8881 13.6552C12.4467 13.6046 12.0125 13.7566 11.7013 14.0677L10.3697 15.3993C8.3217 14.3572 6.64276 12.6855 5.60067 10.6303L6.93947 9.29144C7.25065 8.98025 7.40263 8.54605 7.35197 8.1046L7.1421 6.28092C7.05526 5.55 6.44013 5 5.70198 5H4.45002C3.63226 5 2.952 5.68026 3.00266 6.49802C3.38621 12.6783 8.32894 17.6138 14.5019 17.9973C15.3197 18.048 15.9999 17.3677 15.9999 16.55V15.298C16.0072 14.5671 15.4572 13.952 14.7263 13.8651Z"/>
</g>
<defs>
<clipPath id="clip0_297083_8305">
<rect width="18" height="24"/>
</clipPath>
</defs>
</symbol>
<symbol id="email" viewBox="0 0 18 24">
<g clip-path="url(#clip0_297083_8311)">
<path id="Vector" d="M15 6H3C2.175 6 1.5075 6.675 1.5075 7.5L1.5 16.5C1.5 17.325 2.175 18 3 18H15C15.825 18 16.5 17.325 16.5 16.5V7.5C16.5 6.675 15.825 6 15 6ZM14.7 9.1875L9.3975 12.5025C9.1575 12.6525 8.8425 12.6525 8.6025 12.5025L3.3 9.1875C3.1125 9.0675 3 8.865 3 8.6475C3 8.145 3.5475 7.845 3.975 8.1075L9 11.25L14.025 8.1075C14.4525 7.845 15 8.145 15 8.6475C15 8.865 14.8875 9.0675 14.7 9.1875Z"/>
</g>
<defs>
<clipPath id="clip0_297083_8311">
<rect width="18" height="24"/>
</clipPath>
</defs>
</symbol>
<symbol id="checkmark" viewBox="0 0 10 8">
<path d="M8.44558 0.255056C8.61838 0.089653 8.84834 -0.00178848 9.08693 2.65108e-05C9.32551 0.0018415 9.55407 0.0967713 9.72436 0.264784C9.89466 0.432797 9.99337 0.660752 9.99968 0.900549C10.006 1.14034 9.91939 1.37323 9.75816 1.55005L4.86357 7.70436C4.7794 7.79551 4.67782 7.86865 4.5649 7.91942C4.45198 7.97018 4.33003 7.99754 4.20636 7.99984C4.08268 8.00214 3.95981 7.97935 3.8451 7.93282C3.73038 7.88629 3.62618 7.81698 3.53872 7.72903L0.292827 4.46564C0.202435 4.38096 0.129933 4.27884 0.0796475 4.16537C0.0293621 4.05191 0.00232279 3.92942 0.000143182 3.80522C-0.00203643 3.68102 0.0206883 3.55765 0.0669613 3.44248C0.113234 3.3273 0.182108 3.22267 0.269473 3.13483C0.356838 3.047 0.460905 2.97775 0.575465 2.93123C0.690026 2.88471 0.812734 2.86186 0.936267 2.86405C1.0598 2.86624 1.18163 2.89343 1.29449 2.94398C1.40734 2.99454 1.50892 3.06743 1.59315 3.15831L4.16189 5.73967L8.42227 0.28219C8.42994 0.272694 8.43813 0.263635 8.4468 0.255056H8.44558Z"/>
</symbol>
</defs>
</svg>